<?xml version="1.0" encoding="UTF-8"?>
<!DOCTYPE svg PUBLIC "-//W3C//DTD SVG 1.1//EN" "http://www.w3.org/Graphics/SVG/1.1/DTD/svg11.dtd">
<!-- Creator: CorelDRAW 2018 (64 Bit Versão de avaliação) -->
<svg xmlns="http://www.w3.org/2000/svg" xml:space="preserve" width="22.832mm" height="6.1073mm" version="1.1" style="shape-rendering:geometricPrecision; text-rendering:geometricPrecision; image-rendering:optimizeQuality; fill-rule:evenodd; clip-rule:evenodd"
viewBox="0 0 3455.39 924.28"
 xmlns:xlink="http://www.w3.org/1999/xlink">
 <defs>
  <style type="text/css">
   <![CDATA[
    .fil1 {fill:none}
    .fil0 {fill:#FEFEFE}
   ]]>
  </style>
    <clipPath id="id0">
     <path d="M52.12 796.49l3377.13 0c11.62,0 21.11,9.49 21.11,21.1l0 85.6c0,11.61 -9.49,21.1 -21.11,21.1l-3377.13 0c-11.59,0 -21.08,-9.49 -21.08,-21.1l0 -85.6c0,-11.61 9.49,-21.1 21.08,-21.1z"/>
    </clipPath>
     <clipPath id="id1">
      <path d="M52.12 796.49l3377.13 0c11.62,0 21.11,9.49 21.11,21.1l0 85.6c0,11.61 -9.49,21.1 -21.11,21.1l-3377.13 0c-11.59,0 -21.08,-9.49 -21.08,-21.1l0 -85.6c0,-11.61 9.49,-21.1 21.08,-21.1z"/>
     </clipPath>
     <clipPath id="id2">
      <path d="M52.12 796.49l3377.13 0c11.62,0 21.11,9.49 21.11,21.1l0 85.6c0,11.61 -9.49,21.1 -21.11,21.1l-3377.13 0c-11.59,0 -21.08,-9.49 -21.08,-21.1l0 -85.6c0,-11.61 9.49,-21.1 21.08,-21.1z"/>
     </clipPath>
 </defs>
 <g id="Camada_x0020_1">
  <metadata id="CorelCorpID_0Corel-Layer"/>
  <g id="_2951288225088">
   <path class="fil0" d="M1514.21 139.44c186.51,-50.97 225.31,204.97 78.51,250.39 -79.2,24.5 -147.28,-21.85 -163.73,-83.89 -22.13,-83.36 21.2,-149.01 85.22,-166.5zm168.4 315.98c-1.77,87.49 -24.94,139.64 -100.79,158.79 -35.81,9.05 -78.47,7.7 -114.28,0.82 -35.6,-6.87 -70.15,-28.88 -103.15,-22.91 -19.48,18.98 -44.95,65.86 -41.71,103.65 21.16,13.11 25.79,18.33 51.09,28.86 132.3,55.01 333.36,43.86 418.74,-94.27 50.08,-81.03 37.14,-184.23 37.14,-290.22 0,-67.86 8.76,-274.61 -7.51,-319.64 -25.61,-6.96 -56.59,-8.78 -89.46,-6.54 -49.08,3.36 -28.77,27.89 -47.04,53.26 -8.73,-6.66 -9.37,-10.68 -19.48,-18.69 -123.48,-97.74 -385.08,-50.76 -391.3,209.7 -6.1,254.72 245.11,324.91 379.97,219.32 17.12,-13.42 10.23,-13.61 27.77,-22.11z"/>
   <path class="fil0" d="M41.06 20.43c-13.98,39.35 -51.3,470.53 -38.38,503.89 20.43,8.79 75.25,10.46 102.55,7.01 39.55,-4.98 34.31,-34.81 36.58,-73.52 2.21,-37.74 5.75,-181.73 14.32,-202.95 12.38,14.44 47.31,81.59 58.8,103.17 27.73,52.09 25.14,70.28 100.05,69.57 56.04,-0.53 52.14,-9.84 91.42,-77.65 17.46,-30.15 43.37,-81.48 61.78,-105.86 21.11,38.56 -7.26,260.38 29.21,282.46 26.58,11.35 98.55,7.26 126.23,-0.54 13.47,-40.76 -27.33,-485.82 -36.82,-498.74 -15.1,-20.54 -93.56,-19.76 -115.26,-6.37 -27.95,17.24 -131.71,228.83 -162.22,256.38l-96.06 -173.34c-10.94,-20.95 -35.96,-72.75 -51.03,-82.31 -24.58,-15.59 -97.81,-9.16 -121.16,-1.18z"/>
   <path class="fil0" d="M911.7 137.55c184.18,-48.96 221.64,235.33 65.97,271.26 -182.05,41.98 -218.7,-230.66 -65.97,-271.26zm170.83 337.02c14.2,40.18 3.1,56.21 55.98,57.36 113.25,2.47 84.39,-1.63 84.39,-263.45 0,-257.44 26.64,-255.49 -84.33,-254.75 -58.66,0.38 -47.84,20.39 -56.36,43.86 -4.18,11.52 0.64,3.36 -5.18,10.59 -119.33,-132.53 -415.94,-71.57 -409.39,210.62 5.58,240.68 218.56,315.69 359.37,236.03 23.47,-13.27 38.64,-30.9 55.51,-40.26z"/>
   <path class="fil0" d="M2125.61 138.05c184.89,-47.05 219.4,227.3 73.17,269.08 -186.25,53.2 -227.77,-229.75 -73.17,-269.08zm173.3 336.2c4.54,46.95 8.04,57.22 57.86,57.66 37.93,0.33 75.97,4.75 79.83,-33.84l0.08 -449.05c-3.1,-42.16 -34.2,-35.32 -74.73,-35.25 -49.19,0.08 -61.14,1.59 -64.56,52.38 -13.06,-3.22 -118.11,-118.11 -282.41,-37.53 -227.52,111.57 -155.2,571.47 157.53,510.45 26.51,-5.18 49.97,-14.48 71.13,-25.68 24.35,-12.89 39.26,-31.45 55.28,-39.14z"/>
   <path class="fil0" d="M3314.11 474.77c13.39,27.77 1.63,48.85 35.94,55.62 132.85,26.2 102.28,-47.1 102.28,-118.59 0,-61.2 5.25,-367.5 -2.07,-381.97 -18.4,-18.99 -87.44,-24.82 -123.04,-13.98 -66.97,20.42 25.82,285.11 -61.56,368.04 -47.34,44.92 -152.75,45.58 -172.27,-59.17 -13.39,-71.89 9.97,-229.82 -4.81,-285.94 -8.73,-33.11 -80.69,-28.95 -116.58,-24.58 -47.26,5.75 -33.52,66.12 -33.51,110.98 0,81.9 -7.87,200.4 14.32,274.38 21.54,71.81 66.42,124.08 145.95,140.19 39.71,8.02 88.93,5.01 126.11,-7.4 46.36,-15.48 64.47,-35.49 89.24,-57.57z"/>
   <path class="fil0" d="M2527.75 16.86c-34.94,14.7 -24.05,51.7 -24.03,92.95 0.08,94.45 -11.52,264.12 21.34,328.18 24.76,48.26 66.26,83.19 138.87,91.92 28.65,3.44 210.12,5.92 227.9,-2.57 23.84,-11.41 19.13,-64.36 17.04,-95.12 -6.46,-95.56 -235.59,30.63 -250.38,-97.21 -6.99,-60.41 -0.83,-165.22 -0.76,-230.32 0.05,-35.4 8.35,-78.56 -22.63,-88.49 -15.68,-5.02 -94.6,-4.72 -107.36,0.65z"/>
   <g>
   </g>
   <g style="clip-path:url(#id0)">
    <g id="_2951288224640">
    </g>
    <g style="clip-path:url(#id1)">
     <image x="-313.31" y="-604.65" width="4094.62" height="2047.29" xlink:href="logomarca_Images\logomarca_ImgID1.png"/>
    </g>
    <g style="clip-path:url(#id2)">
    </g>
   </g>
   <path class="fil1" d="M52.12 796.49l3377.13 0c11.62,0 21.11,9.49 21.11,21.1l0 85.6c0,11.61 -9.49,21.1 -21.11,21.1l-3377.13 0c-11.59,0 -21.08,-9.49 -21.08,-21.1l0 -85.6c0,-11.61 9.49,-21.1 21.08,-21.1z"/>
  </g>
 </g>
</svg>
